# xmcd
#
# Track frame offsets: 
#        151
#        19160
#        39125
#        59998
#        81103
#        100100
#        122247
#        148742
#        167277
#        185986
#        205733
#        223924
#
# Disc length: 3218 seconds
#
# Revision: 0
# Processed by: cddbd v1.5.1PL2 Copyright (c) Steve Scherf et al.
# Submitted via: ExactAudioCopy v0.95b4
#
DISCID=b00c900c
DTITLE=ปอยฝ้าย  มาลัยพร - ฝากฟ้าไปผ่าน้อง
DYEAR=2005
DGENRE=Country
TTITLE0=ฝากฟ้าไปผ่าน้อง
TTITLE1=เสียงครวญจากหลุมศพ
TTITLE2=มุ้นอุ้ยปุ้ยบันเทิงศิลป์
TTITLE3=โพลิดอน
TTITLE4=ยายจันทร์ในดวงใจ
TTITLE5=สองคนบนเถียงนา
TTITLE6=พรปู่นาค
TTITLE7=คำเขาว่านั้นฆ่าพี่
TTITLE8=แม่บักแป๊ก
TTITLE9=ดอกรักริมทาง
TTITLE10=โจ๋ไว้ก่อน
TTITLE11=หยุดทีเถิดน้อง
EXTD=
EXTT0=
EXTT1=
EXTT2=
EXTT3=
EXTT4=
EXTT5=
EXTT6=
EXTT7=
EXTT8=
EXTT9=
EXTT10=
EXTT11=
PLAYORDER=
